<mxfile host="app.diagrams.net" modified="2023-05-21T09:23:59.609Z" agent="Mozilla/5.0 (Windows NT 10.0; Win64; x64) AppleWebKit/537.36 (KHTML, like Gecko) Chrome/113.0.0.0 Safari/537.36" etag="Gjb8Mg_za1WLGe19bnGG" version="21.3.2" type="device">
  <diagram name="Page-1" id="2YBvvXClWsGukQMizWep">
    <mxGraphModel dx="1900" dy="1681" grid="1" gridSize="10" guides="1" tooltips="1" connect="1" arrows="1" fold="1" page="1" pageScale="1" pageWidth="850" pageHeight="1100" math="0" shadow="0">
      <root>
        <mxCell id="0" />
        <mxCell id="1" parent="0" />
        <mxCell id="5MHw9OX2IIHrTDI-6UjH-1" value="k:KeyIn" style="shape=umlLifeline;perimeter=lifelinePerimeter;whiteSpace=wrap;html=1;container=0;dropTarget=0;collapsible=0;recursiveResize=0;outlineConnect=0;portConstraint=eastwest;newEdgeStyle={&quot;edgeStyle&quot;:&quot;elbowEdgeStyle&quot;,&quot;elbow&quot;:&quot;vertical&quot;,&quot;curved&quot;:0,&quot;rounded&quot;:0};" parent="1" vertex="1">
          <mxGeometry x="70" y="10" width="100" height="510" as="geometry" />
        </mxCell>
        <mxCell id="5MHw9OX2IIHrTDI-6UjH-2" value="" style="html=1;points=[];perimeter=orthogonalPerimeter;outlineConnect=0;targetShapes=umlLifeline;portConstraint=eastwest;newEdgeStyle={&quot;edgeStyle&quot;:&quot;elbowEdgeStyle&quot;,&quot;elbow&quot;:&quot;vertical&quot;,&quot;curved&quot;:0,&quot;rounded&quot;:0};" parent="5MHw9OX2IIHrTDI-6UjH-1" vertex="1">
          <mxGeometry x="45" y="70" width="10" height="420" as="geometry" />
        </mxCell>
        <mxCell id="5MHw9OX2IIHrTDI-6UjH-3" value="keyBoardAction*" style="html=1;verticalAlign=bottom;startArrow=oval;endArrow=block;startSize=8;edgeStyle=elbowEdgeStyle;elbow=vertical;curved=0;rounded=0;" parent="5MHw9OX2IIHrTDI-6UjH-1" target="5MHw9OX2IIHrTDI-6UjH-2" edge="1">
          <mxGeometry relative="1" as="geometry">
            <mxPoint x="-50" y="80" as="sourcePoint" />
          </mxGeometry>
        </mxCell>
        <mxCell id="5MHw9OX2IIHrTDI-6UjH-4" value="alt" style="shape=umlFrame;whiteSpace=wrap;html=1;pointerEvents=0;" parent="1" vertex="1">
          <mxGeometry x="-40" y="100" width="840" height="370" as="geometry" />
        </mxCell>
        <mxCell id="5MHw9OX2IIHrTDI-6UjH-5" value="g:GameView" style="shape=umlLifeline;perimeter=lifelinePerimeter;whiteSpace=wrap;html=1;container=0;dropTarget=0;collapsible=0;recursiveResize=0;outlineConnect=0;portConstraint=eastwest;newEdgeStyle={&quot;edgeStyle&quot;:&quot;elbowEdgeStyle&quot;,&quot;elbow&quot;:&quot;vertical&quot;,&quot;curved&quot;:0,&quot;rounded&quot;:0};" parent="1" vertex="1">
          <mxGeometry x="220" y="10" width="100" height="180" as="geometry" />
        </mxCell>
        <mxCell id="5MHw9OX2IIHrTDI-6UjH-6" value="" style="html=1;points=[];perimeter=orthogonalPerimeter;outlineConnect=0;targetShapes=umlLifeline;portConstraint=eastwest;newEdgeStyle={&quot;edgeStyle&quot;:&quot;elbowEdgeStyle&quot;,&quot;elbow&quot;:&quot;vertical&quot;,&quot;curved&quot;:0,&quot;rounded&quot;:0};" parent="5MHw9OX2IIHrTDI-6UjH-5" vertex="1">
          <mxGeometry x="45" y="100" width="10" height="60" as="geometry" />
        </mxCell>
        <mxCell id="5MHw9OX2IIHrTDI-6UjH-7" value="e:EndGameView" style="shape=umlLifeline;perimeter=lifelinePerimeter;whiteSpace=wrap;html=1;container=0;dropTarget=0;collapsible=0;recursiveResize=0;outlineConnect=0;portConstraint=eastwest;newEdgeStyle={&quot;edgeStyle&quot;:&quot;elbowEdgeStyle&quot;,&quot;elbow&quot;:&quot;vertical&quot;,&quot;curved&quot;:0,&quot;rounded&quot;:0};" parent="1" vertex="1">
          <mxGeometry x="340" y="10" width="100" height="300" as="geometry" />
        </mxCell>
        <mxCell id="5MHw9OX2IIHrTDI-6UjH-8" value="" style="html=1;points=[];perimeter=orthogonalPerimeter;outlineConnect=0;targetShapes=umlLifeline;portConstraint=eastwest;newEdgeStyle={&quot;edgeStyle&quot;:&quot;elbowEdgeStyle&quot;,&quot;elbow&quot;:&quot;vertical&quot;,&quot;curved&quot;:0,&quot;rounded&quot;:0};" parent="5MHw9OX2IIHrTDI-6UjH-7" vertex="1">
          <mxGeometry x="45" y="200" width="10" height="60" as="geometry" />
        </mxCell>
        <mxCell id="5MHw9OX2IIHrTDI-6UjH-9" value="n:NewGameView" style="shape=umlLifeline;perimeter=lifelinePerimeter;whiteSpace=wrap;html=1;container=0;dropTarget=0;collapsible=0;recursiveResize=0;outlineConnect=0;portConstraint=eastwest;newEdgeStyle={&quot;edgeStyle&quot;:&quot;elbowEdgeStyle&quot;,&quot;elbow&quot;:&quot;vertical&quot;,&quot;curved&quot;:0,&quot;rounded&quot;:0};" parent="1" vertex="1">
          <mxGeometry x="470" y="10" width="100" height="410" as="geometry" />
        </mxCell>
        <mxCell id="5MHw9OX2IIHrTDI-6UjH-10" value="" style="html=1;points=[];perimeter=orthogonalPerimeter;outlineConnect=0;targetShapes=umlLifeline;portConstraint=eastwest;newEdgeStyle={&quot;edgeStyle&quot;:&quot;elbowEdgeStyle&quot;,&quot;elbow&quot;:&quot;vertical&quot;,&quot;curved&quot;:0,&quot;rounded&quot;:0};" parent="5MHw9OX2IIHrTDI-6UjH-9" vertex="1">
          <mxGeometry x="45" y="300" width="10" height="60" as="geometry" />
        </mxCell>
        <mxCell id="5MHw9OX2IIHrTDI-6UjH-11" value="m:MenuView" style="shape=umlLifeline;perimeter=lifelinePerimeter;whiteSpace=wrap;html=1;container=0;dropTarget=0;collapsible=0;recursiveResize=0;outlineConnect=0;portConstraint=eastwest;newEdgeStyle={&quot;edgeStyle&quot;:&quot;elbowEdgeStyle&quot;,&quot;elbow&quot;:&quot;vertical&quot;,&quot;curved&quot;:0,&quot;rounded&quot;:0};" parent="1" vertex="1">
          <mxGeometry x="610" y="10" width="100" height="460" as="geometry" />
        </mxCell>
        <mxCell id="5MHw9OX2IIHrTDI-6UjH-12" value="" style="html=1;points=[];perimeter=orthogonalPerimeter;outlineConnect=0;targetShapes=umlLifeline;portConstraint=eastwest;newEdgeStyle={&quot;edgeStyle&quot;:&quot;elbowEdgeStyle&quot;,&quot;elbow&quot;:&quot;vertical&quot;,&quot;curved&quot;:0,&quot;rounded&quot;:0};" parent="5MHw9OX2IIHrTDI-6UjH-11" vertex="1">
          <mxGeometry x="45" y="370" width="10" height="40" as="geometry" />
        </mxCell>
        <mxCell id="5MHw9OX2IIHrTDI-6UjH-13" value="keyBoardAction*" style="html=1;verticalAlign=bottom;endArrow=block;edgeStyle=elbowEdgeStyle;elbow=vertical;curved=0;rounded=0;" parent="1" target="5MHw9OX2IIHrTDI-6UjH-6" edge="1">
          <mxGeometry relative="1" as="geometry">
            <mxPoint x="120" y="120" as="sourcePoint" />
            <Array as="points">
              <mxPoint x="220" y="120" />
              <mxPoint x="155" y="130" />
              <mxPoint x="195" y="140" />
              <mxPoint x="155" y="110" />
            </Array>
            <mxPoint x="250" y="130" as="targetPoint" />
          </mxGeometry>
        </mxCell>
        <mxCell id="5MHw9OX2IIHrTDI-6UjH-14" value="" style="html=1;verticalAlign=bottom;endArrow=open;dashed=1;endSize=8;edgeStyle=elbowEdgeStyle;elbow=vertical;curved=0;rounded=0;" parent="1" source="5MHw9OX2IIHrTDI-6UjH-6" edge="1">
          <mxGeometry relative="1" as="geometry">
            <mxPoint x="120" y="159.5" as="targetPoint" />
            <Array as="points">
              <mxPoint x="230" y="160" />
              <mxPoint x="190" y="160" />
            </Array>
            <mxPoint x="260" y="160" as="sourcePoint" />
          </mxGeometry>
        </mxCell>
        <mxCell id="5MHw9OX2IIHrTDI-6UjH-15" value="keyBoardAction*" style="html=1;verticalAlign=bottom;endArrow=block;edgeStyle=elbowEdgeStyle;elbow=vertical;curved=0;rounded=0;" parent="1" target="5MHw9OX2IIHrTDI-6UjH-7" edge="1">
          <mxGeometry relative="1" as="geometry">
            <mxPoint x="120" y="214.5" as="sourcePoint" />
            <Array as="points">
              <mxPoint x="220" y="214.5" />
              <mxPoint x="155" y="224.5" />
              <mxPoint x="195" y="234.5" />
              <mxPoint x="155" y="204.5" />
            </Array>
            <mxPoint x="265" y="214.5" as="targetPoint" />
          </mxGeometry>
        </mxCell>
        <mxCell id="5MHw9OX2IIHrTDI-6UjH-16" value="" style="html=1;verticalAlign=bottom;endArrow=open;dashed=1;endSize=8;edgeStyle=elbowEdgeStyle;elbow=vertical;curved=0;rounded=0;" parent="1" source="5MHw9OX2IIHrTDI-6UjH-8" edge="1">
          <mxGeometry relative="1" as="geometry">
            <mxPoint x="120" y="250" as="targetPoint" />
            <Array as="points">
              <mxPoint x="230" y="250.5" />
              <mxPoint x="190" y="250.5" />
            </Array>
            <mxPoint x="265" y="250.5" as="sourcePoint" />
          </mxGeometry>
        </mxCell>
        <mxCell id="5MHw9OX2IIHrTDI-6UjH-17" value="keyBoardAction*" style="html=1;verticalAlign=bottom;endArrow=block;edgeStyle=elbowEdgeStyle;elbow=vertical;curved=0;rounded=0;" parent="1" target="5MHw9OX2IIHrTDI-6UjH-10" edge="1">
          <mxGeometry relative="1" as="geometry">
            <mxPoint x="120" y="330" as="sourcePoint" />
            <Array as="points">
              <mxPoint x="220" y="330" />
              <mxPoint x="155" y="340" />
              <mxPoint x="195" y="350" />
              <mxPoint x="155" y="320" />
            </Array>
            <mxPoint x="390" y="330.5" as="targetPoint" />
          </mxGeometry>
        </mxCell>
        <mxCell id="5MHw9OX2IIHrTDI-6UjH-18" value="" style="html=1;verticalAlign=bottom;endArrow=open;dashed=1;endSize=8;edgeStyle=elbowEdgeStyle;elbow=vertical;curved=0;rounded=0;" parent="1" source="5MHw9OX2IIHrTDI-6UjH-9" edge="1">
          <mxGeometry relative="1" as="geometry">
            <mxPoint x="120" y="360" as="targetPoint" />
            <Array as="points">
              <mxPoint x="230" y="360.5" />
              <mxPoint x="190" y="360.5" />
            </Array>
            <mxPoint x="385" y="361" as="sourcePoint" />
          </mxGeometry>
        </mxCell>
        <mxCell id="5MHw9OX2IIHrTDI-6UjH-19" value="keyBoardAction*" style="html=1;verticalAlign=bottom;endArrow=block;edgeStyle=elbowEdgeStyle;elbow=vertical;curved=0;rounded=0;" parent="1" target="5MHw9OX2IIHrTDI-6UjH-11" edge="1">
          <mxGeometry relative="1" as="geometry">
            <mxPoint x="120" y="390" as="sourcePoint" />
            <Array as="points">
              <mxPoint x="220" y="390" />
              <mxPoint x="155" y="400" />
              <mxPoint x="195" y="410" />
              <mxPoint x="155" y="380" />
            </Array>
            <mxPoint x="390" y="390.5" as="targetPoint" />
          </mxGeometry>
        </mxCell>
        <mxCell id="5MHw9OX2IIHrTDI-6UjH-20" value="" style="html=1;verticalAlign=bottom;endArrow=open;dashed=1;endSize=8;edgeStyle=elbowEdgeStyle;elbow=vertical;curved=0;rounded=0;" parent="1" source="5MHw9OX2IIHrTDI-6UjH-11" edge="1">
          <mxGeometry relative="1" as="geometry">
            <mxPoint x="120" y="410" as="targetPoint" />
            <Array as="points">
              <mxPoint x="230" y="410.5" />
              <mxPoint x="190" y="410.5" />
            </Array>
            <mxPoint x="520" y="411" as="sourcePoint" />
          </mxGeometry>
        </mxCell>
        <mxCell id="5MHw9OX2IIHrTDI-6UjH-21" value="" style="endArrow=none;dashed=1;html=1;rounded=0;exitX=0;exitY=0.483;exitDx=0;exitDy=0;exitPerimeter=0;" parent="1" source="5MHw9OX2IIHrTDI-6UjH-4" edge="1">
          <mxGeometry width="50" height="50" relative="1" as="geometry">
            <mxPoint x="20" y="280" as="sourcePoint" />
            <mxPoint x="800" y="280" as="targetPoint" />
            <Array as="points" />
          </mxGeometry>
        </mxCell>
        <mxCell id="5MHw9OX2IIHrTDI-6UjH-22" value="" style="endArrow=none;dashed=1;html=1;rounded=0;exitX=-0.001;exitY=0.245;exitDx=0;exitDy=0;exitPerimeter=0;" parent="1" source="5MHw9OX2IIHrTDI-6UjH-4" edge="1">
          <mxGeometry width="50" height="50" relative="1" as="geometry">
            <mxPoint x="-60" y="190" as="sourcePoint" />
            <mxPoint x="800" y="191" as="targetPoint" />
            <Array as="points" />
          </mxGeometry>
        </mxCell>
        <mxCell id="5MHw9OX2IIHrTDI-6UjH-23" value="" style="endArrow=none;dashed=1;html=1;rounded=0;exitX=-0.002;exitY=0.727;exitDx=0;exitDy=0;exitPerimeter=0;" parent="1" source="5MHw9OX2IIHrTDI-6UjH-4" edge="1">
          <mxGeometry width="50" height="50" relative="1" as="geometry">
            <mxPoint x="15" y="370" as="sourcePoint" />
            <mxPoint x="805" y="371" as="targetPoint" />
            <Array as="points" />
          </mxGeometry>
        </mxCell>
        <mxCell id="5MHw9OX2IIHrTDI-6UjH-24" value="[windowOption==game]" style="text;html=1;strokeColor=none;fillColor=none;align=center;verticalAlign=middle;whiteSpace=wrap;rounded=0;" parent="1" vertex="1">
          <mxGeometry x="20" y="145" width="50" height="30" as="geometry" />
        </mxCell>
        <mxCell id="5MHw9OX2IIHrTDI-6UjH-25" value="[windowOption==end]" style="text;html=1;strokeColor=none;fillColor=none;align=center;verticalAlign=middle;whiteSpace=wrap;rounded=0;" parent="1" vertex="1">
          <mxGeometry x="20" y="225" width="60" height="30" as="geometry" />
        </mxCell>
        <mxCell id="5MHw9OX2IIHrTDI-6UjH-26" value="[windowOption==newgame]" style="text;html=1;strokeColor=none;fillColor=none;align=center;verticalAlign=middle;whiteSpace=wrap;rounded=0;" parent="1" vertex="1">
          <mxGeometry x="10" y="300" width="60" height="30" as="geometry" />
        </mxCell>
        <mxCell id="5MHw9OX2IIHrTDI-6UjH-27" value="[windowOption==menu]" style="text;html=1;strokeColor=none;fillColor=none;align=center;verticalAlign=middle;whiteSpace=wrap;rounded=0;" parent="1" vertex="1">
          <mxGeometry x="10" y="390" width="60" height="30" as="geometry" />
        </mxCell>
        <mxCell id="5MHw9OX2IIHrTDI-6UjH-28" value="User" style="shape=umlActor;verticalLabelPosition=bottom;verticalAlign=top;html=1;outlineConnect=0;" parent="1" vertex="1">
          <mxGeometry x="-30" y="10" width="30" height="60" as="geometry" />
        </mxCell>
        <mxCell id="5MHw9OX2IIHrTDI-6UjH-29" value="" style="html=1;verticalAlign=bottom;endArrow=open;dashed=1;endSize=8;edgeStyle=elbowEdgeStyle;elbow=vertical;curved=0;rounded=0;" parent="1" edge="1">
          <mxGeometry relative="1" as="geometry">
            <mxPoint y="490" as="targetPoint" />
            <Array as="points">
              <mxPoint x="110" y="490.5" />
              <mxPoint x="70" y="490.5" />
            </Array>
            <mxPoint x="120" y="490" as="sourcePoint" />
          </mxGeometry>
        </mxCell>
        <mxCell id="Z3wo3AdQ7aytcX8s2OZD-2" value="playerinteract2" style="shape=umlFrame;whiteSpace=wrap;html=1;pointerEvents=0;width=100;height=15;" vertex="1" parent="1">
          <mxGeometry x="-80" y="-20" width="900" height="540" as="geometry" />
        </mxCell>
      </root>
    </mxGraphModel>
  </diagram>
</mxfile>
